<svg width="35" height="34" viewBox="0 0 35 34" fill="none" xmlns="http://www.w3.org/2000/svg">
<path d="M3.28125 0.218872C1.46973 0.218872 0 2.08133 0 4.37693C0 5.68498 0.485352 6.91507 1.3125 7.70337L16.1875 21.8408C16.9668 22.5771 18.0332 22.5771 18.8125 21.8408L33.6875 7.70337C34.5146 6.91507 35 5.68498 35 4.37693C35 2.08133 33.5303 0.218872 31.7188 0.218872H3.28125ZM0 9.921V27.9392C0 30.9971 1.96191 33.4833 4.375 33.4833H30.625C33.0381 33.4833 35 30.9971 35 27.9392V9.921L20.125 24.0584C18.5664 25.5397 16.4336 25.5397 14.875 24.0584L0 9.921Z" fill="white"/>
</svg>
