<svg width="87" height="85" viewBox="0 0 87 85" fill="none" xmlns="http://www.w3.org/2000/svg">
<path d="M43.5097 20.8589C31.1657 20.8589 21.209 30.4974 21.209 42.4469C21.209 54.3963 31.1657 64.0348 43.5097 64.0348C55.8537 64.0348 65.8104 54.3963 65.8104 42.4469C65.8104 30.4974 55.8537 20.8589 43.5097 20.8589ZM43.5097 56.4819C35.5327 56.4819 29.0113 50.1877 29.0113 42.4469C29.0113 34.706 35.5133 28.4119 43.5097 28.4119C51.5061 28.4119 58.0081 34.706 58.0081 42.4469C58.0081 50.1877 51.4867 56.4819 43.5097 56.4819ZM71.9242 19.9758C71.9242 22.7753 69.5952 25.0111 66.7226 25.0111C63.8307 25.0111 61.5211 22.7565 61.5211 19.9758C61.5211 17.1951 63.8501 14.9405 66.7226 14.9405C69.5952 14.9405 71.9242 17.1951 71.9242 19.9758ZM86.6943 25.0863C86.3644 18.3412 84.7728 12.3665 79.6683 7.44391C74.5832 2.52132 68.4112 0.980669 61.4434 0.642476C54.2622 0.247918 32.7378 0.247918 25.5566 0.642476C18.6082 0.961881 12.4362 2.50254 7.33168 7.42512C2.22716 12.3477 0.655047 18.3224 0.305689 25.0675C-0.101896 32.0193 -0.101896 52.8557 0.305689 59.8074C0.635639 66.5525 2.22716 72.5272 7.33168 77.4498C12.4362 82.3724 18.5888 83.9131 25.5566 84.2512C32.7378 84.6458 54.2622 84.6458 61.4434 84.2512C68.4112 83.9318 74.5832 82.3912 79.6683 77.4498C84.7534 72.5272 86.345 66.5525 86.6943 59.8074C87.1019 52.8557 87.1019 32.038 86.6943 25.0863ZM77.4169 67.2665C75.903 70.949 72.9723 73.7861 69.1488 75.2703C63.4231 77.4686 49.837 76.9613 43.5097 76.9613C37.1824 76.9613 23.5769 77.4498 17.8707 75.2703C14.0665 73.8048 11.1358 70.9678 9.60251 67.2665C7.33168 61.7239 7.85572 48.5719 7.85572 42.4469C7.85572 36.3218 7.35109 23.1511 9.60251 17.6273C11.1164 13.9447 14.0471 11.1077 17.8707 9.62337C23.5963 7.42512 37.1824 7.93241 43.5097 7.93241C49.837 7.93241 63.4426 7.44391 69.1488 9.62337C72.9529 11.0889 75.8836 13.9259 77.4169 17.6273C79.6877 23.1699 79.1637 36.3218 79.1637 42.4469C79.1637 48.5719 79.6877 61.7426 77.4169 67.2665Z" fill="white"/>
</svg>
