<svg width="27" height="33" viewBox="0 0 27 33" fill="none" xmlns="http://www.w3.org/2000/svg">
<path d="M8.69551 2.02988C8.28948 0.859263 7.21902 0.236191 6.19602 0.569755L1.5556 2.08023C0.638058 2.38233 0 3.37672 0 4.50958C0 20.0801 10.578 32.7051 23.624 32.7051C24.5731 32.7051 25.4063 31.9436 25.6594 30.8485L26.925 25.3101C27.2045 24.0891 26.6824 22.8115 25.7016 22.3269L20.6393 19.8095C19.7798 19.3815 18.7832 19.6773 18.1978 20.5395L16.0675 23.6423C12.3551 21.5465 9.34939 17.9591 7.59342 13.5284L10.1931 10.992C10.9155 10.2872 11.1634 9.10395 10.8048 8.07808L8.69551 2.03618V2.02988Z" fill="white"/>
</svg>
