<svg width="103" height="75" viewBox="0 0 103 75" fill="none" xmlns="http://www.w3.org/2000/svg">
<path d="M0 6.25C0 2.79297 3.25711 0 7.28863 0H94.7522C98.7837 0 102.041 2.79297 102.041 6.25C102.041 9.70703 98.7837 12.5 94.7522 12.5H7.28863C3.25711 12.5 0 9.70703 0 6.25ZM0 37.5C0 34.043 3.25711 31.25 7.28863 31.25H94.7522C98.7837 31.25 102.041 34.043 102.041 37.5C102.041 40.957 98.7837 43.75 94.7522 43.75H7.28863C3.25711 43.75 0 40.957 0 37.5ZM102.041 68.75C102.041 72.207 98.7837 75 94.7522 75H7.28863C3.25711 75 0 72.207 0 68.75C0 65.293 3.25711 62.5 7.28863 62.5H94.7522C98.7837 62.5 102.041 65.293 102.041 68.75Z" fill="#4242F1"/>
</svg>
