<svg width="105" height="85" viewBox="0 0 105 85" fill="none" xmlns="http://www.w3.org/2000/svg">
<path d="M102.806 13.6396C101.598 8.45384 98.0404 4.36967 93.5228 2.98365C85.3344 0.465088 52.5 0.465088 52.5 0.465088C52.5 0.465088 19.6657 0.465088 11.4772 2.98365C6.95964 4.36989 3.40166 8.45384 2.19408 13.6396C0 23.0392 0 42.6505 0 42.6505C0 42.6505 0 62.2618 2.19408 71.6613C3.40166 76.8471 6.95964 80.7611 11.4772 82.1471C19.6657 84.6657 52.5 84.6657 52.5 84.6657C52.5 84.6657 85.3342 84.6657 93.5228 82.1471C98.0404 80.7611 101.598 76.8471 102.806 71.6613C105 62.2618 105 42.6505 105 42.6505C105 42.6505 105 23.0392 102.806 13.6396ZM41.7613 60.4561V24.8449L69.2044 42.6509L41.7613 60.4561Z" fill="white"/>
</svg>
